<?xml version="1.0" encoding="UTF-8" standalone="no"?>
<!-- Created with Inkscape (http://www.inkscape.org/) -->

<svg
   xmlns:dc="http://purl.org/dc/elements/1.1/"
   xmlns:cc="http://creativecommons.org/ns#"
   xmlns:rdf="http://www.w3.org/1999/02/22-rdf-syntax-ns#"
   xmlns:svg="http://www.w3.org/2000/svg"
   xmlns="http://www.w3.org/2000/svg"
   xmlns:sodipodi="http://sodipodi.sourceforge.net/DTD/sodipodi-0.dtd"
   xmlns:inkscape="http://www.inkscape.org/namespaces/inkscape"
   width="841mm"
   height="1189mm"
   viewBox="0 0 841 1189"
   version="1.1"
   id="svg8"
   inkscape:version="0.92.4 (5da689c313, 2019-01-14)"
   sodipodi:docname="pytonixs.svg">
  <defs
     id="defs2">
    <inkscape:path-effect
       effect="bend_path"
       id="path-effect1217"
       is_visible="true"
       bendpath="m -104.51041,133.3552 c 50.222812,-58.142012 138.860768,-38.976556 192.352078,0"
       prop_scale="0.98905165"
       scale_y_rel="false"
       vertical="false"
       bendpath-nodetypes="cc" />
  </defs>
  <sodipodi:namedview
     id="base"
     pagecolor="#ffffff"
     bordercolor="#666666"
     borderopacity="1.0"
     inkscape:pageopacity="0.0"
     inkscape:pageshadow="2"
     inkscape:zoom="0.088388348"
     inkscape:cx="-4112.3042"
     inkscape:cy="898.6701"
     inkscape:document-units="px"
     inkscape:current-layer="layer1"
     showgrid="false"
     showborder="true"
     inkscape:window-width="1868"
     inkscape:window-height="1016"
     inkscape:window-x="0"
     inkscape:window-y="27"
     inkscape:window-maximized="1"
     units="mm" />
  <metadata
     id="metadata5">
    <rdf:RDF>
      <cc:Work
         rdf:about="">
        <dc:format>image/svg+xml</dc:format>
        <dc:type
           rdf:resource="http://purl.org/dc/dcmitype/StillImage" />
        <dc:title></dc:title>
      </cc:Work>
    </rdf:RDF>
  </metadata>
  <g
     inkscape:label="Layer 1"
     inkscape:groupmode="layer"
     id="layer1"
     transform="translate(0,892.00001)">
    <g
       id="g1568"
       transform="matrix(3.0721728,0,0,3.0722206,547.62178,-1016.3977)"
       style="stroke-width:0.32549998">
      <g
         style="stroke-width:0.59421349"
         transform="matrix(0.54778287,0,0,0.54778287,-18.57183,97.858278)"
         id="g1471">
        <g
           style="stroke-width:0.59421349"
           inkscape:transform-center-y="-94.987732"
           inkscape:transform-center-x="-51.371578"
           transform="matrix(0.25881905,-0.96592583,-0.96592583,-0.25881905,128.84238,146.58013)"
           id="g1249">
          <path
             inkscape:connector-curvature="0"
             id="path1229"
             d="m -94.595482,123.33807 c 2.338814,2.65011 1.914636,6.83686 -0.607193,9.38728 -2.520765,2.54934 -6.701755,3.02082 -9.379365,0.71288 -2.67802,-2.30831 -2.73898,-6.69261 0.2634,-9.72811 3.00137,-3.03448 7.384699,-3.02176 9.723158,-0.37205 z"
             style="opacity:0.9;fill:#5599ff;fill-opacity:0.99215686;stroke:#fffbfe;stroke-width:0.15721901;stroke-linecap:round;stroke-linejoin:bevel;stroke-miterlimit:4;stroke-dasharray:none;stroke-dashoffset:0;stroke-opacity:1" />
          <path
             inkscape:connector-curvature="0"
             id="path1231"
             d="m 87.753022,133.29065 c -4.87497,6.69869 -14.628747,7.91019 -21.65418,3.69028 -7.042867,-4.23037 -10.554776,-13.42516 -6.897965,-20.87106 1.760588,-3.58485 5.037845,-6.24577 9.282917,-7.22603 4.23974,-0.97903 9.008447,-0.16404 13.115408,2.30529 4.106876,2.46927 7.073163,6.30557 8.199112,10.51612 1.127777,4.21738 0.305165,8.35564 -2.045292,11.5854 z"
             style="opacity:0.9;fill:#0000ff;fill-opacity:0.99215686;stroke:#fffbfe;stroke-width:0.15721901;stroke-linecap:round;stroke-linejoin:bevel;stroke-miterlimit:4;stroke-dasharray:none;stroke-dashoffset:0;stroke-opacity:1" />
          <path
             inkscape:connector-curvature="0"
             id="path1233"
             d="m -60.965518,103.40819 c 1.511272,4.22005 -0.918834,8.94574 -4.933249,10.79971 0,0 -1.42e-4,7e-5 -1.42e-4,7e-5 -4.019359,1.85616 -9.194918,0.64041 -11.422105,-3.24827 -2.5e-5,-4e-5 -4.9e-5,-9e-5 -7.4e-5,-1.3e-4 -2.226144,-3.88705 -0.432229,-9.19399 4.598797,-11.51954 1.88e-4,-8.7e-5 3.76e-4,-1.74e-4 5.64e-4,-2.61e-4 5.035602,-2.327319 10.244341,-0.25329 11.756209,3.968421 z"
             style="opacity:0.9;fill:#447aff;fill-opacity:0.99215686;stroke:#fffbfe;stroke-width:0.15721901;stroke-linecap:round;stroke-linejoin:bevel;stroke-miterlimit:4;stroke-dasharray:none;stroke-dashoffset:0;stroke-opacity:1" />
          <path
             inkscape:connector-curvature="0"
             id="path1235"
             d="m -22.402866,96.618994 c 0.108684,5.448546 -4.54639,9.936936 -9.929719,10.474936 0,0 -3.1e-4,4e-5 -3.1e-4,4e-5 -5.357502,0.53527 -10.794632,-2.92318 -11.811797,-8.246164 -1.8e-5,-9.7e-5 -3.9e-5,-2.04e-4 -5.7e-5,-3.01e-4 -1.018778,-5.332416 3.14373,-10.704791 9.820025,-11.390729 1e-6,0 4.61e-4,-4.8e-5 4.62e-4,-4.8e-5 6.652126,-0.683217 11.8129,3.723371 11.921396,9.162266 z"
             style="opacity:0.9;fill:#335bff;fill-opacity:0.99215686;stroke:#fffbfe;stroke-width:0.15721901;stroke-linecap:round;stroke-linejoin:bevel;stroke-miterlimit:4;stroke-dasharray:none;stroke-dashoffset:0;stroke-opacity:1" />
          <path
             inkscape:connector-curvature="0"
             id="path1237"
             d="m 16.614165,100.86217 c -1.434259,6.23397 -8.0292029,10.00656 -14.3726106,9.03213 -1.551e-4,-3e-5 -3.103e-4,-5e-5 -4.654e-4,-7e-5 -6.3200375,-0.97107 -11.4719294,-6.53341 -11.005065,-12.902159 1.08e-5,-1.48e-4 2.24e-5,-3.06e-4 3.32e-5,-4.54e-4 0.4677592,-6.377136 6.8057041,-11.183785 14.5180634,-10.00286 1.012e-4,1.5e-5 2.024e-4,3.1e-5 3.036e-4,4.6e-5 7.6905228,1.177738 12.2920768,7.647743 10.8597408,13.873367 z"
             style="opacity:0.9;fill:#213dff;fill-opacity:0.99215686;stroke:#fffbfe;stroke-width:0.15721901;stroke-linecap:round;stroke-linejoin:bevel;stroke-miterlimit:4;stroke-dasharray:none;stroke-dashoffset:0;stroke-opacity:1" />
          <path
             inkscape:connector-curvature="0"
             id="path1239"
             d="m 53.796776,113.55462 c -2.745848,6.03649 -9.834331,8.88619 -16.22482,7.47049 0,0 -10e-7,0 -10e-7,0 -0.688672,-0.15103 -1.375656,-0.35118 -2.057182,-0.60276 1e-6,0 -5.93e-4,-2.2e-4 -5.92e-4,-2.2e-4 -6.934643,-2.56021 -11.427768,-10.05032 -9.403882,-17.105 5.8e-5,-2e-4 1.12e-4,-3.9e-4 1.7e-4,-5.9e-4 2.026827,-7.063575 10.284928,-10.993549 18.66169,-7.879898 0,0 1.44e-4,5.3e-5 1.44e-4,5.3e-5 0.776756,0.288729 1.518381,0.627437 2.220927,1.009687 0,0 1e-6,10e-7 1e-6,10e-7 6.803383,3.686587 9.561238,11.045697 6.803545,17.108237 z"
             style="opacity:0.9;fill:#111eff;fill-opacity:0.99215686;stroke:#fffbfe;stroke-width:0.15721901;stroke-linecap:round;stroke-linejoin:bevel;stroke-miterlimit:4;stroke-dasharray:none;stroke-dashoffset:0;stroke-opacity:1" />
          <path
             inkscape:connector-curvature="0"
             id="path1241"
             d="m -60.965518,103.40819 c 1.511272,4.22005 -0.918834,8.94574 -4.933249,10.79971 0,0 -1.42e-4,7e-5 -1.42e-4,7e-5 -4.019359,1.85616 -9.194918,0.64041 -11.422105,-3.24827 -2.5e-5,-4e-5 -4.9e-5,-9e-5 -7.4e-5,-1.3e-4 -2.226144,-3.88705 -0.432229,-9.19399 4.598797,-11.51954 1.88e-4,-8.7e-5 3.76e-4,-1.74e-4 5.64e-4,-2.61e-4 5.035602,-2.327319 10.244341,-0.25329 11.756209,3.968421 z"
             style="opacity:0.9;fill:#447aff;fill-opacity:0.99215686;stroke:#fffbfe;stroke-width:0.15721901;stroke-linecap:round;stroke-linejoin:bevel;stroke-miterlimit:4;stroke-dasharray:none;stroke-dashoffset:0;stroke-opacity:1" />
          <path
             inkscape:connector-curvature="0"
             id="path1243"
             d="m -22.402866,96.618994 c 0.108684,5.448546 -4.54639,9.936936 -9.929719,10.474936 0,0 -3.1e-4,4e-5 -3.1e-4,4e-5 -5.357502,0.53527 -10.794632,-2.92318 -11.811797,-8.246164 -1.8e-5,-9.7e-5 -3.9e-5,-2.04e-4 -5.7e-5,-3.01e-4 -1.018778,-5.332416 3.14373,-10.704791 9.820025,-11.390729 1e-6,0 4.61e-4,-4.8e-5 4.62e-4,-4.8e-5 6.652126,-0.683217 11.8129,3.723371 11.921396,9.162266 z"
             style="opacity:0.9;fill:#335bff;fill-opacity:0.99215686;stroke:#fffbfe;stroke-width:0.15721901;stroke-linecap:round;stroke-linejoin:bevel;stroke-miterlimit:4;stroke-dasharray:none;stroke-dashoffset:0;stroke-opacity:1" />
          <path
             inkscape:connector-curvature="0"
             id="path1245"
             d="m 16.614165,100.86217 c -1.434259,6.23397 -8.0292029,10.00656 -14.3726106,9.03213 -1.551e-4,-3e-5 -3.103e-4,-5e-5 -4.654e-4,-7e-5 -6.3200375,-0.97107 -11.4719294,-6.53341 -11.005065,-12.902159 1.08e-5,-1.48e-4 2.24e-5,-3.06e-4 3.32e-5,-4.54e-4 0.4677592,-6.377136 6.8057041,-11.183785 14.5180634,-10.00286 1.012e-4,1.5e-5 2.024e-4,3.1e-5 3.036e-4,4.6e-5 7.6905228,1.177738 12.2920768,7.647743 10.8597408,13.873367 z"
             style="opacity:0.9;fill:#213dff;fill-opacity:0.99215686;stroke:#fffbfe;stroke-width:0.15721901;stroke-linecap:round;stroke-linejoin:bevel;stroke-miterlimit:4;stroke-dasharray:none;stroke-dashoffset:0;stroke-opacity:1" />
          <path
             inkscape:connector-curvature="0"
             id="path1247"
             d="m 53.796776,113.55462 c -2.745848,6.03649 -9.834331,8.88619 -16.22482,7.47049 0,0 -10e-7,0 -10e-7,0 -0.688672,-0.15103 -1.375656,-0.35118 -2.057182,-0.60276 1e-6,0 -5.93e-4,-2.2e-4 -5.92e-4,-2.2e-4 -6.934643,-2.56021 -11.427768,-10.05032 -9.403882,-17.105 5.8e-5,-2e-4 1.12e-4,-3.9e-4 1.7e-4,-5.9e-4 2.026827,-7.063575 10.284928,-10.993549 18.66169,-7.879898 0,0 1.44e-4,5.3e-5 1.44e-4,5.3e-5 0.776756,0.288729 1.518381,0.627437 2.220927,1.009687 0,0 1e-6,10e-7 1e-6,10e-7 6.803383,3.686587 9.561238,11.045697 6.803545,17.108237 z"
             style="opacity:0.9;fill:#111eff;fill-opacity:0.99215686;stroke:#fffbfe;stroke-width:0.15721901;stroke-linecap:round;stroke-linejoin:bevel;stroke-miterlimit:4;stroke-dasharray:none;stroke-dashoffset:0;stroke-opacity:1" />
        </g>
        <g
           style="stroke-width:0.59421349"
           inkscape:transform-center-y="-34.350177"
           inkscape:transform-center-x="-99.438237"
           transform="matrix(0.86602541,-0.5,-0.5,-0.86602541,128.44441,287.17398)"
           id="g1271">
          <path
             inkscape:connector-curvature="0"
             id="path1251"
             d="m -94.595482,123.33807 c 2.338814,2.65011 1.914636,6.83686 -0.607193,9.38728 -2.520765,2.54934 -6.701755,3.02082 -9.379365,0.71288 -2.67802,-2.30831 -2.73898,-6.69261 0.2634,-9.72811 3.00137,-3.03448 7.384699,-3.02176 9.723158,-0.37205 z"
             style="opacity:0.9;fill:#5599ff;fill-opacity:0.99215686;stroke:#fffbfe;stroke-width:0.15721901;stroke-linecap:round;stroke-linejoin:bevel;stroke-miterlimit:4;stroke-dasharray:none;stroke-dashoffset:0;stroke-opacity:1" />
          <path
             inkscape:connector-curvature="0"
             id="path1253"
             d="m 87.753022,133.29065 c -4.87497,6.69869 -14.628747,7.91019 -21.65418,3.69028 -7.042867,-4.23037 -10.554776,-13.42516 -6.897965,-20.87106 1.760588,-3.58485 5.037845,-6.24577 9.282917,-7.22603 4.23974,-0.97903 9.008447,-0.16404 13.115408,2.30529 4.106876,2.46927 7.073163,6.30557 8.199112,10.51612 1.127777,4.21738 0.305165,8.35564 -2.045292,11.5854 z"
             style="opacity:0.9;fill:#0000ff;fill-opacity:0.99215686;stroke:#fffbfe;stroke-width:0.15721901;stroke-linecap:round;stroke-linejoin:bevel;stroke-miterlimit:4;stroke-dasharray:none;stroke-dashoffset:0;stroke-opacity:1" />
          <path
             inkscape:connector-curvature="0"
             id="path1255"
             d="m -60.965518,103.40819 c 1.511272,4.22005 -0.918834,8.94574 -4.933249,10.79971 0,0 -1.42e-4,7e-5 -1.42e-4,7e-5 -4.019359,1.85616 -9.194918,0.64041 -11.422105,-3.24827 -2.5e-5,-4e-5 -4.9e-5,-9e-5 -7.4e-5,-1.3e-4 -2.226144,-3.88705 -0.432229,-9.19399 4.598797,-11.51954 1.88e-4,-8.7e-5 3.76e-4,-1.74e-4 5.64e-4,-2.61e-4 5.035602,-2.327319 10.244341,-0.25329 11.756209,3.968421 z"
             style="opacity:0.9;fill:#447aff;fill-opacity:0.99215686;stroke:#fffbfe;stroke-width:0.15721901;stroke-linecap:round;stroke-linejoin:bevel;stroke-miterlimit:4;stroke-dasharray:none;stroke-dashoffset:0;stroke-opacity:1" />
          <path
             inkscape:connector-curvature="0"
             id="path1257"
             d="m -22.402866,96.618994 c 0.108684,5.448546 -4.54639,9.936936 -9.929719,10.474936 0,0 -3.1e-4,4e-5 -3.1e-4,4e-5 -5.357502,0.53527 -10.794632,-2.92318 -11.811797,-8.246164 -1.8e-5,-9.7e-5 -3.9e-5,-2.04e-4 -5.7e-5,-3.01e-4 -1.018778,-5.332416 3.14373,-10.704791 9.820025,-11.390729 1e-6,0 4.61e-4,-4.8e-5 4.62e-4,-4.8e-5 6.652126,-0.683217 11.8129,3.723371 11.921396,9.162266 z"
             style="opacity:0.9;fill:#335bff;fill-opacity:0.99215686;stroke:#fffbfe;stroke-width:0.15721901;stroke-linecap:round;stroke-linejoin:bevel;stroke-miterlimit:4;stroke-dasharray:none;stroke-dashoffset:0;stroke-opacity:1" />
          <path
             inkscape:connector-curvature="0"
             id="path1259"
             d="m 16.614165,100.86217 c -1.434259,6.23397 -8.0292029,10.00656 -14.3726106,9.03213 -1.551e-4,-3e-5 -3.103e-4,-5e-5 -4.654e-4,-7e-5 -6.3200375,-0.97107 -11.4719294,-6.53341 -11.005065,-12.902159 1.08e-5,-1.48e-4 2.24e-5,-3.06e-4 3.32e-5,-4.54e-4 0.4677592,-6.377136 6.8057041,-11.183785 14.5180634,-10.00286 1.012e-4,1.5e-5 2.024e-4,3.1e-5 3.036e-4,4.6e-5 7.6905228,1.177738 12.2920768,7.647743 10.8597408,13.873367 z"
             style="opacity:0.9;fill:#213dff;fill-opacity:0.99215686;stroke:#fffbfe;stroke-width:0.15721901;stroke-linecap:round;stroke-linejoin:bevel;stroke-miterlimit:4;stroke-dasharray:none;stroke-dashoffset:0;stroke-opacity:1" />
          <path
             inkscape:connector-curvature="0"
             id="path1261"
             d="m 53.796776,113.55462 c -2.745848,6.03649 -9.834331,8.88619 -16.22482,7.47049 0,0 -10e-7,0 -10e-7,0 -0.688672,-0.15103 -1.375656,-0.35118 -2.057182,-0.60276 1e-6,0 -5.93e-4,-2.2e-4 -5.92e-4,-2.2e-4 -6.934643,-2.56021 -11.427768,-10.05032 -9.403882,-17.105 5.8e-5,-2e-4 1.12e-4,-3.9e-4 1.7e-4,-5.9e-4 2.026827,-7.063575 10.284928,-10.993549 18.66169,-7.879898 0,0 1.44e-4,5.3e-5 1.44e-4,5.3e-5 0.776756,0.288729 1.518381,0.627437 2.220927,1.009687 0,0 1e-6,10e-7 1e-6,10e-7 6.803383,3.686587 9.561238,11.045697 6.803545,17.108237 z"
             style="opacity:0.9;fill:#111eff;fill-opacity:0.99215686;stroke:#fffbfe;stroke-width:0.15721901;stroke-linecap:round;stroke-linejoin:bevel;stroke-miterlimit:4;stroke-dasharray:none;stroke-dashoffset:0;stroke-opacity:1" />
          <path
             inkscape:connector-curvature="0"
             id="path1263"
             d="m -60.965518,103.40819 c 1.511272,4.22005 -0.918834,8.94574 -4.933249,10.79971 0,0 -1.42e-4,7e-5 -1.42e-4,7e-5 -4.019359,1.85616 -9.194918,0.64041 -11.422105,-3.24827 -2.5e-5,-4e-5 -4.9e-5,-9e-5 -7.4e-5,-1.3e-4 -2.226144,-3.88705 -0.432229,-9.19399 4.598797,-11.51954 1.88e-4,-8.7e-5 3.76e-4,-1.74e-4 5.64e-4,-2.61e-4 5.035602,-2.327319 10.244341,-0.25329 11.756209,3.968421 z"
             style="opacity:0.9;fill:#447aff;fill-opacity:0.99215686;stroke:#fffbfe;stroke-width:0.15721901;stroke-linecap:round;stroke-linejoin:bevel;stroke-miterlimit:4;stroke-dasharray:none;stroke-dashoffset:0;stroke-opacity:1" />
          <path
             inkscape:connector-curvature="0"
             id="path1265"
             d="m -22.402866,96.618994 c 0.108684,5.448546 -4.54639,9.936936 -9.929719,10.474936 0,0 -3.1e-4,4e-5 -3.1e-4,4e-5 -5.357502,0.53527 -10.794632,-2.92318 -11.811797,-8.246164 -1.8e-5,-9.7e-5 -3.9e-5,-2.04e-4 -5.7e-5,-3.01e-4 -1.018778,-5.332416 3.14373,-10.704791 9.820025,-11.390729 1e-6,0 4.61e-4,-4.8e-5 4.62e-4,-4.8e-5 6.652126,-0.683217 11.8129,3.723371 11.921396,9.162266 z"
             style="opacity:0.9;fill:#335bff;fill-opacity:0.99215686;stroke:#fffbfe;stroke-width:0.15721901;stroke-linecap:round;stroke-linejoin:bevel;stroke-miterlimit:4;stroke-dasharray:none;stroke-dashoffset:0;stroke-opacity:1" />
          <path
             inkscape:connector-curvature="0"
             id="path1267"
             d="m 16.614165,100.86217 c -1.434259,6.23397 -8.0292029,10.00656 -14.3726106,9.03213 -1.551e-4,-3e-5 -3.103e-4,-5e-5 -4.654e-4,-7e-5 -6.3200375,-0.97107 -11.4719294,-6.53341 -11.005065,-12.902159 1.08e-5,-1.48e-4 2.24e-5,-3.06e-4 3.32e-5,-4.54e-4 0.4677592,-6.377136 6.8057041,-11.183785 14.5180634,-10.00286 1.012e-4,1.5e-5 2.024e-4,3.1e-5 3.036e-4,4.6e-5 7.6905228,1.177738 12.2920768,7.647743 10.8597408,13.873367 z"
             style="opacity:0.9;fill:#213dff;fill-opacity:0.99215686;stroke:#fffbfe;stroke-width:0.15721901;stroke-linecap:round;stroke-linejoin:bevel;stroke-miterlimit:4;stroke-dasharray:none;stroke-dashoffset:0;stroke-opacity:1" />
          <path
             inkscape:connector-curvature="0"
             id="path1269"
             d="m 53.796776,113.55462 c -2.745848,6.03649 -9.834331,8.88619 -16.22482,7.47049 0,0 -10e-7,0 -10e-7,0 -0.688672,-0.15103 -1.375656,-0.35118 -2.057182,-0.60276 1e-6,0 -5.93e-4,-2.2e-4 -5.92e-4,-2.2e-4 -6.934643,-2.56021 -11.427768,-10.05032 -9.403882,-17.105 5.8e-5,-2e-4 1.12e-4,-3.9e-4 1.7e-4,-5.9e-4 2.026827,-7.063575 10.284928,-10.993549 18.66169,-7.879898 0,0 1.44e-4,5.3e-5 1.44e-4,5.3e-5 0.776756,0.288729 1.518381,0.627437 2.220927,1.009687 0,0 1e-6,10e-7 1e-6,10e-7 6.803383,3.686587 9.561238,11.045697 6.803545,17.108237 z"
             style="opacity:0.9;fill:#111eff;fill-opacity:0.99215686;stroke:#fffbfe;stroke-width:0.15721901;stroke-linecap:round;stroke-linejoin:bevel;stroke-miterlimit:4;stroke-dasharray:none;stroke-dashoffset:0;stroke-opacity:1" />
        </g>
        <g
           style="stroke-width:0.59421349"
           inkscape:transform-center-y="51.371579"
           inkscape:transform-center-x="-94.987728"
           transform="matrix(0.96592583,0.25881905,0.25881905,-0.96592583,28.748138,386.30743)"
           id="g1293">
          <path
             inkscape:connector-curvature="0"
             id="path1273"
             d="m -94.595482,123.33807 c 2.338814,2.65011 1.914636,6.83686 -0.607193,9.38728 -2.520765,2.54934 -6.701755,3.02082 -9.379365,0.71288 -2.67802,-2.30831 -2.73898,-6.69261 0.2634,-9.72811 3.00137,-3.03448 7.384699,-3.02176 9.723158,-0.37205 z"
             style="opacity:0.9;fill:#5599ff;fill-opacity:0.99215686;stroke:#fffbfe;stroke-width:0.15721901;stroke-linecap:round;stroke-linejoin:bevel;stroke-miterlimit:4;stroke-dasharray:none;stroke-dashoffset:0;stroke-opacity:1" />
          <path
             inkscape:connector-curvature="0"
             id="path1275"
             d="m 87.753022,133.29065 c -4.87497,6.69869 -14.628747,7.91019 -21.65418,3.69028 -7.042867,-4.23037 -10.554776,-13.42516 -6.897965,-20.87106 1.760588,-3.58485 5.037845,-6.24577 9.282917,-7.22603 4.23974,-0.97903 9.008447,-0.16404 13.115408,2.30529 4.106876,2.46927 7.073163,6.30557 8.199112,10.51612 1.127777,4.21738 0.305165,8.35564 -2.045292,11.5854 z"
             style="opacity:0.9;fill:#0000ff;fill-opacity:0.99215686;stroke:#fffbfe;stroke-width:0.15721901;stroke-linecap:round;stroke-linejoin:bevel;stroke-miterlimit:4;stroke-dasharray:none;stroke-dashoffset:0;stroke-opacity:1" />
          <path
             inkscape:connector-curvature="0"
             id="path1277"
             d="m -60.965518,103.40819 c 1.511272,4.22005 -0.918834,8.94574 -4.933249,10.79971 0,0 -1.42e-4,7e-5 -1.42e-4,7e-5 -4.019359,1.85616 -9.194918,0.64041 -11.422105,-3.24827 -2.5e-5,-4e-5 -4.9e-5,-9e-5 -7.4e-5,-1.3e-4 -2.226144,-3.88705 -0.432229,-9.19399 4.598797,-11.51954 1.88e-4,-8.7e-5 3.76e-4,-1.74e-4 5.64e-4,-2.61e-4 5.035602,-2.327319 10.244341,-0.25329 11.756209,3.968421 z"
             style="opacity:0.9;fill:#447aff;fill-opacity:0.99215686;stroke:#fffbfe;stroke-width:0.15721901;stroke-linecap:round;stroke-linejoin:bevel;stroke-miterlimit:4;stroke-dasharray:none;stroke-dashoffset:0;stroke-opacity:1" />
          <path
             inkscape:connector-curvature="0"
             id="path1279"
             d="m -22.402866,96.618994 c 0.108684,5.448546 -4.54639,9.936936 -9.929719,10.474936 0,0 -3.1e-4,4e-5 -3.1e-4,4e-5 -5.357502,0.53527 -10.794632,-2.92318 -11.811797,-8.246164 -1.8e-5,-9.7e-5 -3.9e-5,-2.04e-4 -5.7e-5,-3.01e-4 -1.018778,-5.332416 3.14373,-10.704791 9.820025,-11.390729 1e-6,0 4.61e-4,-4.8e-5 4.62e-4,-4.8e-5 6.652126,-0.683217 11.8129,3.723371 11.921396,9.162266 z"
             style="opacity:0.9;fill:#335bff;fill-opacity:0.99215686;stroke:#fffbfe;stroke-width:0.15721901;stroke-linecap:round;stroke-linejoin:bevel;stroke-miterlimit:4;stroke-dasharray:none;stroke-dashoffset:0;stroke-opacity:1" />
          <path
             inkscape:connector-curvature="0"
             id="path1281"
             d="m 16.614165,100.86217 c -1.434259,6.23397 -8.0292029,10.00656 -14.3726106,9.03213 -1.551e-4,-3e-5 -3.103e-4,-5e-5 -4.654e-4,-7e-5 -6.3200375,-0.97107 -11.4719294,-6.53341 -11.005065,-12.902159 1.08e-5,-1.48e-4 2.24e-5,-3.06e-4 3.32e-5,-4.54e-4 0.4677592,-6.377136 6.8057041,-11.183785 14.5180634,-10.00286 1.012e-4,1.5e-5 2.024e-4,3.1e-5 3.036e-4,4.6e-5 7.6905228,1.177738 12.2920768,7.647743 10.8597408,13.873367 z"
             style="opacity:0.9;fill:#213dff;fill-opacity:0.99215686;stroke:#fffbfe;stroke-width:0.15721901;stroke-linecap:round;stroke-linejoin:bevel;stroke-miterlimit:4;stroke-dasharray:none;stroke-dashoffset:0;stroke-opacity:1" />
          <path
             inkscape:connector-curvature="0"
             id="path1283"
             d="m 53.796776,113.55462 c -2.745848,6.03649 -9.834331,8.88619 -16.22482,7.47049 0,0 -10e-7,0 -10e-7,0 -0.688672,-0.15103 -1.375656,-0.35118 -2.057182,-0.60276 1e-6,0 -5.93e-4,-2.2e-4 -5.92e-4,-2.2e-4 -6.934643,-2.56021 -11.427768,-10.05032 -9.403882,-17.105 5.8e-5,-2e-4 1.12e-4,-3.9e-4 1.7e-4,-5.9e-4 2.026827,-7.063575 10.284928,-10.993549 18.66169,-7.879898 0,0 1.44e-4,5.3e-5 1.44e-4,5.3e-5 0.776756,0.288729 1.518381,0.627437 2.220927,1.009687 0,0 1e-6,10e-7 1e-6,10e-7 6.803383,3.686587 9.561238,11.045697 6.803545,17.108237 z"
             style="opacity:0.9;fill:#111eff;fill-opacity:0.99215686;stroke:#fffbfe;stroke-width:0.15721901;stroke-linecap:round;stroke-linejoin:bevel;stroke-miterlimit:4;stroke-dasharray:none;stroke-dashoffset:0;stroke-opacity:1" />
          <path
             inkscape:connector-curvature="0"
             id="path1285"
             d="m -60.965518,103.40819 c 1.511272,4.22005 -0.918834,8.94574 -4.933249,10.79971 0,0 -1.42e-4,7e-5 -1.42e-4,7e-5 -4.019359,1.85616 -9.194918,0.64041 -11.422105,-3.24827 -2.5e-5,-4e-5 -4.9e-5,-9e-5 -7.4e-5,-1.3e-4 -2.226144,-3.88705 -0.432229,-9.19399 4.598797,-11.51954 1.88e-4,-8.7e-5 3.76e-4,-1.74e-4 5.64e-4,-2.61e-4 5.035602,-2.327319 10.244341,-0.25329 11.756209,3.968421 z"
             style="opacity:0.9;fill:#447aff;fill-opacity:0.99215686;stroke:#fffbfe;stroke-width:0.15721901;stroke-linecap:round;stroke-linejoin:bevel;stroke-miterlimit:4;stroke-dasharray:none;stroke-dashoffset:0;stroke-opacity:1" />
          <path
             inkscape:connector-curvature="0"
             id="path1287"
             d="m -22.402866,96.618994 c 0.108684,5.448546 -4.54639,9.936936 -9.929719,10.474936 0,0 -3.1e-4,4e-5 -3.1e-4,4e-5 -5.357502,0.53527 -10.794632,-2.92318 -11.811797,-8.246164 -1.8e-5,-9.7e-5 -3.9e-5,-2.04e-4 -5.7e-5,-3.01e-4 -1.018778,-5.332416 3.14373,-10.704791 9.820025,-11.390729 1e-6,0 4.61e-4,-4.8e-5 4.62e-4,-4.8e-5 6.652126,-0.683217 11.8129,3.723371 11.921396,9.162266 z"
             style="opacity:0.9;fill:#335bff;fill-opacity:0.99215686;stroke:#fffbfe;stroke-width:0.15721901;stroke-linecap:round;stroke-linejoin:bevel;stroke-miterlimit:4;stroke-dasharray:none;stroke-dashoffset:0;stroke-opacity:1" />
          <path
             inkscape:connector-curvature="0"
             id="path1289"
             d="m 16.614165,100.86217 c -1.434259,6.23397 -8.0292029,10.00656 -14.3726106,9.03213 -1.551e-4,-3e-5 -3.103e-4,-5e-5 -4.654e-4,-7e-5 -6.3200375,-0.97107 -11.4719294,-6.53341 -11.005065,-12.902159 1.08e-5,-1.48e-4 2.24e-5,-3.06e-4 3.32e-5,-4.54e-4 0.4677592,-6.377136 6.8057041,-11.183785 14.5180634,-10.00286 1.012e-4,1.5e-5 2.024e-4,3.1e-5 3.036e-4,4.6e-5 7.6905228,1.177738 12.2920768,7.647743 10.8597408,13.873367 z"
             style="opacity:0.9;fill:#213dff;fill-opacity:0.99215686;stroke:#fffbfe;stroke-width:0.15721901;stroke-linecap:round;stroke-linejoin:bevel;stroke-miterlimit:4;stroke-dasharray:none;stroke-dashoffset:0;stroke-opacity:1" />
          <path
             inkscape:connector-curvature="0"
             id="path1291"
             d="m 53.796776,113.55462 c -2.745848,6.03649 -9.834331,8.88619 -16.22482,7.47049 0,0 -10e-7,0 -10e-7,0 -0.688672,-0.15103 -1.375656,-0.35118 -2.057182,-0.60276 1e-6,0 -5.93e-4,-2.2e-4 -5.92e-4,-2.2e-4 -6.934643,-2.56021 -11.427768,-10.05032 -9.403882,-17.105 5.8e-5,-2e-4 1.12e-4,-3.9e-4 1.7e-4,-5.9e-4 2.026827,-7.063575 10.284928,-10.993549 18.66169,-7.879898 0,0 1.44e-4,5.3e-5 1.44e-4,5.3e-5 0.776756,0.288729 1.518381,0.627437 2.220927,1.009687 0,0 1e-6,10e-7 1e-6,10e-7 6.803383,3.686587 9.561238,11.045697 6.803545,17.108237 z"
             style="opacity:0.9;fill:#111eff;fill-opacity:0.99215686;stroke:#fffbfe;stroke-width:0.15721901;stroke-linecap:round;stroke-linejoin:bevel;stroke-miterlimit:4;stroke-dasharray:none;stroke-dashoffset:0;stroke-opacity:1" />
        </g>
        <g
           style="stroke-width:0.59421349"
           inkscape:transform-center-y="99.438238"
           inkscape:transform-center-x="-34.350175"
           transform="matrix(0.5,0.86602541,0.86602541,-0.5,-111.84571,385.90946)"
           id="g1315">
          <path
             inkscape:connector-curvature="0"
             id="path1295"
             d="m -94.595482,123.33807 c 2.338814,2.65011 1.914636,6.83686 -0.607193,9.38728 -2.520765,2.54934 -6.701755,3.02082 -9.379365,0.71288 -2.67802,-2.30831 -2.73898,-6.69261 0.2634,-9.72811 3.00137,-3.03448 7.384699,-3.02176 9.723158,-0.37205 z"
             style="opacity:0.9;fill:#5599ff;fill-opacity:0.99215686;stroke:#fffbfe;stroke-width:0.15721901;stroke-linecap:round;stroke-linejoin:bevel;stroke-miterlimit:4;stroke-dasharray:none;stroke-dashoffset:0;stroke-opacity:1" />
          <path
             inkscape:connector-curvature="0"
             id="path1297"
             d="m 87.753022,133.29065 c -4.87497,6.69869 -14.628747,7.91019 -21.65418,3.69028 -7.042867,-4.23037 -10.554776,-13.42516 -6.897965,-20.87106 1.760588,-3.58485 5.037845,-6.24577 9.282917,-7.22603 4.23974,-0.97903 9.008447,-0.16404 13.115408,2.30529 4.106876,2.46927 7.073163,6.30557 8.199112,10.51612 1.127777,4.21738 0.305165,8.35564 -2.045292,11.5854 z"
             style="opacity:0.9;fill:#0000ff;fill-opacity:0.99215686;stroke:#fffbfe;stroke-width:0.15721901;stroke-linecap:round;stroke-linejoin:bevel;stroke-miterlimit:4;stroke-dasharray:none;stroke-dashoffset:0;stroke-opacity:1" />
          <path
             inkscape:connector-curvature="0"
             id="path1299"
             d="m -60.965518,103.40819 c 1.511272,4.22005 -0.918834,8.94574 -4.933249,10.79971 0,0 -1.42e-4,7e-5 -1.42e-4,7e-5 -4.019359,1.85616 -9.194918,0.64041 -11.422105,-3.24827 -2.5e-5,-4e-5 -4.9e-5,-9e-5 -7.4e-5,-1.3e-4 -2.226144,-3.88705 -0.432229,-9.19399 4.598797,-11.51954 1.88e-4,-8.7e-5 3.76e-4,-1.74e-4 5.64e-4,-2.61e-4 5.035602,-2.327319 10.244341,-0.25329 11.756209,3.968421 z"
             style="opacity:0.9;fill:#447aff;fill-opacity:0.99215686;stroke:#fffbfe;stroke-width:0.15721901;stroke-linecap:round;stroke-linejoin:bevel;stroke-miterlimit:4;stroke-dasharray:none;stroke-dashoffset:0;stroke-opacity:1" />
          <path
             inkscape:connector-curvature="0"
             id="path1301"
             d="m -22.402866,96.618994 c 0.108684,5.448546 -4.54639,9.936936 -9.929719,10.474936 0,0 -3.1e-4,4e-5 -3.1e-4,4e-5 -5.357502,0.53527 -10.794632,-2.92318 -11.811797,-8.246164 -1.8e-5,-9.7e-5 -3.9e-5,-2.04e-4 -5.7e-5,-3.01e-4 -1.018778,-5.332416 3.14373,-10.704791 9.820025,-11.390729 1e-6,0 4.61e-4,-4.8e-5 4.62e-4,-4.8e-5 6.652126,-0.683217 11.8129,3.723371 11.921396,9.162266 z"
             style="opacity:0.9;fill:#335bff;fill-opacity:0.99215686;stroke:#fffbfe;stroke-width:0.15721901;stroke-linecap:round;stroke-linejoin:bevel;stroke-miterlimit:4;stroke-dasharray:none;stroke-dashoffset:0;stroke-opacity:1" />
          <path
             inkscape:connector-curvature="0"
             id="path1303"
             d="m 16.614165,100.86217 c -1.434259,6.23397 -8.0292029,10.00656 -14.3726106,9.03213 -1.551e-4,-3e-5 -3.103e-4,-5e-5 -4.654e-4,-7e-5 -6.3200375,-0.97107 -11.4719294,-6.53341 -11.005065,-12.902159 1.08e-5,-1.48e-4 2.24e-5,-3.06e-4 3.32e-5,-4.54e-4 0.4677592,-6.377136 6.8057041,-11.183785 14.5180634,-10.00286 1.012e-4,1.5e-5 2.024e-4,3.1e-5 3.036e-4,4.6e-5 7.6905228,1.177738 12.2920768,7.647743 10.8597408,13.873367 z"
             style="opacity:0.9;fill:#213dff;fill-opacity:0.99215686;stroke:#fffbfe;stroke-width:0.15721901;stroke-linecap:round;stroke-linejoin:bevel;stroke-miterlimit:4;stroke-dasharray:none;stroke-dashoffset:0;stroke-opacity:1" />
          <path
             inkscape:connector-curvature="0"
             id="path1305"
             d="m 53.796776,113.55462 c -2.745848,6.03649 -9.834331,8.88619 -16.22482,7.47049 0,0 -10e-7,0 -10e-7,0 -0.688672,-0.15103 -1.375656,-0.35118 -2.057182,-0.60276 1e-6,0 -5.93e-4,-2.2e-4 -5.92e-4,-2.2e-4 -6.934643,-2.56021 -11.427768,-10.05032 -9.403882,-17.105 5.8e-5,-2e-4 1.12e-4,-3.9e-4 1.7e-4,-5.9e-4 2.026827,-7.063575 10.284928,-10.993549 18.66169,-7.879898 0,0 1.44e-4,5.3e-5 1.44e-4,5.3e-5 0.776756,0.288729 1.518381,0.627437 2.220927,1.009687 0,0 1e-6,10e-7 1e-6,10e-7 6.803383,3.686587 9.561238,11.045697 6.803545,17.108237 z"
             style="opacity:0.9;fill:#111eff;fill-opacity:0.99215686;stroke:#fffbfe;stroke-width:0.15721901;stroke-linecap:round;stroke-linejoin:bevel;stroke-miterlimit:4;stroke-dasharray:none;stroke-dashoffset:0;stroke-opacity:1" />
          <path
             inkscape:connector-curvature="0"
             id="path1307"
             d="m -60.965518,103.40819 c 1.511272,4.22005 -0.918834,8.94574 -4.933249,10.79971 0,0 -1.42e-4,7e-5 -1.42e-4,7e-5 -4.019359,1.85616 -9.194918,0.64041 -11.422105,-3.24827 -2.5e-5,-4e-5 -4.9e-5,-9e-5 -7.4e-5,-1.3e-4 -2.226144,-3.88705 -0.432229,-9.19399 4.598797,-11.51954 1.88e-4,-8.7e-5 3.76e-4,-1.74e-4 5.64e-4,-2.61e-4 5.035602,-2.327319 10.244341,-0.25329 11.756209,3.968421 z"
             style="opacity:0.9;fill:#447aff;fill-opacity:0.99215686;stroke:#fffbfe;stroke-width:0.15721901;stroke-linecap:round;stroke-linejoin:bevel;stroke-miterlimit:4;stroke-dasharray:none;stroke-dashoffset:0;stroke-opacity:1" />
          <path
             inkscape:connector-curvature="0"
             id="path1309"
             d="m -22.402866,96.618994 c 0.108684,5.448546 -4.54639,9.936936 -9.929719,10.474936 0,0 -3.1e-4,4e-5 -3.1e-4,4e-5 -5.357502,0.53527 -10.794632,-2.92318 -11.811797,-8.246164 -1.8e-5,-9.7e-5 -3.9e-5,-2.04e-4 -5.7e-5,-3.01e-4 -1.018778,-5.332416 3.14373,-10.704791 9.820025,-11.390729 1e-6,0 4.61e-4,-4.8e-5 4.62e-4,-4.8e-5 6.652126,-0.683217 11.8129,3.723371 11.921396,9.162266 z"
             style="opacity:0.9;fill:#335bff;fill-opacity:0.99215686;stroke:#fffbfe;stroke-width:0.15721901;stroke-linecap:round;stroke-linejoin:bevel;stroke-miterlimit:4;stroke-dasharray:none;stroke-dashoffset:0;stroke-opacity:1" />
          <path
             inkscape:connector-curvature="0"
             id="path1311"
             d="m 16.614165,100.86217 c -1.434259,6.23397 -8.0292029,10.00656 -14.3726106,9.03213 -1.551e-4,-3e-5 -3.103e-4,-5e-5 -4.654e-4,-7e-5 -6.3200375,-0.97107 -11.4719294,-6.53341 -11.005065,-12.902159 1.08e-5,-1.48e-4 2.24e-5,-3.06e-4 3.32e-5,-4.54e-4 0.4677592,-6.377136 6.8057041,-11.183785 14.5180634,-10.00286 1.012e-4,1.5e-5 2.024e-4,3.1e-5 3.036e-4,4.6e-5 7.6905228,1.177738 12.2920768,7.647743 10.8597408,13.873367 z"
             style="opacity:0.9;fill:#213dff;fill-opacity:0.99215686;stroke:#fffbfe;stroke-width:0.15721901;stroke-linecap:round;stroke-linejoin:bevel;stroke-miterlimit:4;stroke-dasharray:none;stroke-dashoffset:0;stroke-opacity:1" />
          <path
             inkscape:connector-curvature="0"
             id="path1313"
             d="m 53.796776,113.55462 c -2.745848,6.03649 -9.834331,8.88619 -16.22482,7.47049 0,0 -10e-7,0 -10e-7,0 -0.688672,-0.15103 -1.375656,-0.35118 -2.057182,-0.60276 1e-6,0 -5.93e-4,-2.2e-4 -5.92e-4,-2.2e-4 -6.934643,-2.56021 -11.427768,-10.05032 -9.403882,-17.105 5.8e-5,-2e-4 1.12e-4,-3.9e-4 1.7e-4,-5.9e-4 2.026827,-7.063575 10.284928,-10.993549 18.66169,-7.879898 0,0 1.44e-4,5.3e-5 1.44e-4,5.3e-5 0.776756,0.288729 1.518381,0.627437 2.220927,1.009687 0,0 1e-6,10e-7 1e-6,10e-7 6.803383,3.686587 9.561238,11.045697 6.803545,17.108237 z"
             style="opacity:0.9;fill:#111eff;fill-opacity:0.99215686;stroke:#fffbfe;stroke-width:0.15721901;stroke-linecap:round;stroke-linejoin:bevel;stroke-miterlimit:4;stroke-dasharray:none;stroke-dashoffset:0;stroke-opacity:1" />
        </g>
        <g
           style="stroke-width:0.59421349"
           inkscape:transform-center-y="94.987731"
           inkscape:transform-center-x="51.371581"
           transform="matrix(-0.25881905,0.96592583,0.96592583,0.25881905,-210.97916,286.21319)"
           id="g1337">
          <path
             inkscape:connector-curvature="0"
             id="path1317"
             d="m -94.595482,123.33807 c 2.338814,2.65011 1.914636,6.83686 -0.607193,9.38728 -2.520765,2.54934 -6.701755,3.02082 -9.379365,0.71288 -2.67802,-2.30831 -2.73898,-6.69261 0.2634,-9.72811 3.00137,-3.03448 7.384699,-3.02176 9.723158,-0.37205 z"
             style="opacity:0.9;fill:#5599ff;fill-opacity:0.99215686;stroke:#fffbfe;stroke-width:0.15721901;stroke-linecap:round;stroke-linejoin:bevel;stroke-miterlimit:4;stroke-dasharray:none;stroke-dashoffset:0;stroke-opacity:1" />
          <path
             inkscape:connector-curvature="0"
             id="path1319"
             d="m 87.753022,133.29065 c -4.87497,6.69869 -14.628747,7.91019 -21.65418,3.69028 -7.042867,-4.23037 -10.554776,-13.42516 -6.897965,-20.87106 1.760588,-3.58485 5.037845,-6.24577 9.282917,-7.22603 4.23974,-0.97903 9.008447,-0.16404 13.115408,2.30529 4.106876,2.46927 7.073163,6.30557 8.199112,10.51612 1.127777,4.21738 0.305165,8.35564 -2.045292,11.5854 z"
             style="opacity:0.9;fill:#0000ff;fill-opacity:0.99215686;stroke:#fffbfe;stroke-width:0.15721901;stroke-linecap:round;stroke-linejoin:bevel;stroke-miterlimit:4;stroke-dasharray:none;stroke-dashoffset:0;stroke-opacity:1" />
          <path
             inkscape:connector-curvature="0"
             id="path1321"
             d="m -60.965518,103.40819 c 1.511272,4.22005 -0.918834,8.94574 -4.933249,10.79971 0,0 -1.42e-4,7e-5 -1.42e-4,7e-5 -4.019359,1.85616 -9.194918,0.64041 -11.422105,-3.24827 -2.5e-5,-4e-5 -4.9e-5,-9e-5 -7.4e-5,-1.3e-4 -2.226144,-3.88705 -0.432229,-9.19399 4.598797,-11.51954 1.88e-4,-8.7e-5 3.76e-4,-1.74e-4 5.64e-4,-2.61e-4 5.035602,-2.327319 10.244341,-0.25329 11.756209,3.968421 z"
             style="opacity:0.9;fill:#447aff;fill-opacity:0.99215686;stroke:#fffbfe;stroke-width:0.15721901;stroke-linecap:round;stroke-linejoin:bevel;stroke-miterlimit:4;stroke-dasharray:none;stroke-dashoffset:0;stroke-opacity:1" />
          <path
             inkscape:connector-curvature="0"
             id="path1323"
             d="m -22.402866,96.618994 c 0.108684,5.448546 -4.54639,9.936936 -9.929719,10.474936 0,0 -3.1e-4,4e-5 -3.1e-4,4e-5 -5.357502,0.53527 -10.794632,-2.92318 -11.811797,-8.246164 -1.8e-5,-9.7e-5 -3.9e-5,-2.04e-4 -5.7e-5,-3.01e-4 -1.018778,-5.332416 3.14373,-10.704791 9.820025,-11.390729 1e-6,0 4.61e-4,-4.8e-5 4.62e-4,-4.8e-5 6.652126,-0.683217 11.8129,3.723371 11.921396,9.162266 z"
             style="opacity:0.9;fill:#335bff;fill-opacity:0.99215686;stroke:#fffbfe;stroke-width:0.15721901;stroke-linecap:round;stroke-linejoin:bevel;stroke-miterlimit:4;stroke-dasharray:none;stroke-dashoffset:0;stroke-opacity:1" />
          <path
             inkscape:connector-curvature="0"
             id="path1325"
             d="m 16.614165,100.86217 c -1.434259,6.23397 -8.0292029,10.00656 -14.3726106,9.03213 -1.551e-4,-3e-5 -3.103e-4,-5e-5 -4.654e-4,-7e-5 -6.3200375,-0.97107 -11.4719294,-6.53341 -11.005065,-12.902159 1.08e-5,-1.48e-4 2.24e-5,-3.06e-4 3.32e-5,-4.54e-4 0.4677592,-6.377136 6.8057041,-11.183785 14.5180634,-10.00286 1.012e-4,1.5e-5 2.024e-4,3.1e-5 3.036e-4,4.6e-5 7.6905228,1.177738 12.2920768,7.647743 10.8597408,13.873367 z"
             style="opacity:0.9;fill:#213dff;fill-opacity:0.99215686;stroke:#fffbfe;stroke-width:0.15721901;stroke-linecap:round;stroke-linejoin:bevel;stroke-miterlimit:4;stroke-dasharray:none;stroke-dashoffset:0;stroke-opacity:1" />
          <path
             inkscape:connector-curvature="0"
             id="path1327"
             d="m 53.796776,113.55462 c -2.745848,6.03649 -9.834331,8.88619 -16.22482,7.47049 0,0 -10e-7,0 -10e-7,0 -0.688672,-0.15103 -1.375656,-0.35118 -2.057182,-0.60276 1e-6,0 -5.93e-4,-2.2e-4 -5.92e-4,-2.2e-4 -6.934643,-2.56021 -11.427768,-10.05032 -9.403882,-17.105 5.8e-5,-2e-4 1.12e-4,-3.9e-4 1.7e-4,-5.9e-4 2.026827,-7.063575 10.284928,-10.993549 18.66169,-7.879898 0,0 1.44e-4,5.3e-5 1.44e-4,5.3e-5 0.776756,0.288729 1.518381,0.627437 2.220927,1.009687 0,0 1e-6,10e-7 1e-6,10e-7 6.803383,3.686587 9.561238,11.045697 6.803545,17.108237 z"
             style="opacity:0.9;fill:#111eff;fill-opacity:0.99215686;stroke:#fffbfe;stroke-width:0.15721901;stroke-linecap:round;stroke-linejoin:bevel;stroke-miterlimit:4;stroke-dasharray:none;stroke-dashoffset:0;stroke-opacity:1" />
          <path
             inkscape:connector-curvature="0"
             id="path1329"
             d="m -60.965518,103.40819 c 1.511272,4.22005 -0.918834,8.94574 -4.933249,10.79971 0,0 -1.42e-4,7e-5 -1.42e-4,7e-5 -4.019359,1.85616 -9.194918,0.64041 -11.422105,-3.24827 -2.5e-5,-4e-5 -4.9e-5,-9e-5 -7.4e-5,-1.3e-4 -2.226144,-3.88705 -0.432229,-9.19399 4.598797,-11.51954 1.88e-4,-8.7e-5 3.76e-4,-1.74e-4 5.64e-4,-2.61e-4 5.035602,-2.327319 10.244341,-0.25329 11.756209,3.968421 z"
             style="opacity:0.9;fill:#447aff;fill-opacity:0.99215686;stroke:#fffbfe;stroke-width:0.15721901;stroke-linecap:round;stroke-linejoin:bevel;stroke-miterlimit:4;stroke-dasharray:none;stroke-dashoffset:0;stroke-opacity:1" />
          <path
             inkscape:connector-curvature="0"
             id="path1331"
             d="m -22.402866,96.618994 c 0.108684,5.448546 -4.54639,9.936936 -9.929719,10.474936 0,0 -3.1e-4,4e-5 -3.1e-4,4e-5 -5.357502,0.53527 -10.794632,-2.92318 -11.811797,-8.246164 -1.8e-5,-9.7e-5 -3.9e-5,-2.04e-4 -5.7e-5,-3.01e-4 -1.018778,-5.332416 3.14373,-10.704791 9.820025,-11.390729 1e-6,0 4.61e-4,-4.8e-5 4.62e-4,-4.8e-5 6.652126,-0.683217 11.8129,3.723371 11.921396,9.162266 z"
             style="opacity:0.9;fill:#335bff;fill-opacity:0.99215686;stroke:#fffbfe;stroke-width:0.15721901;stroke-linecap:round;stroke-linejoin:bevel;stroke-miterlimit:4;stroke-dasharray:none;stroke-dashoffset:0;stroke-opacity:1" />
          <path
             inkscape:connector-curvature="0"
             id="path1333"
             d="m 16.614165,100.86217 c -1.434259,6.23397 -8.0292029,10.00656 -14.3726106,9.03213 -1.551e-4,-3e-5 -3.103e-4,-5e-5 -4.654e-4,-7e-5 -6.3200375,-0.97107 -11.4719294,-6.53341 -11.005065,-12.902159 1.08e-5,-1.48e-4 2.24e-5,-3.06e-4 3.32e-5,-4.54e-4 0.4677592,-6.377136 6.8057041,-11.183785 14.5180634,-10.00286 1.012e-4,1.5e-5 2.024e-4,3.1e-5 3.036e-4,4.6e-5 7.6905228,1.177738 12.2920768,7.647743 10.8597408,13.873367 z"
             style="opacity:0.9;fill:#213dff;fill-opacity:0.99215686;stroke:#fffbfe;stroke-width:0.15721901;stroke-linecap:round;stroke-linejoin:bevel;stroke-miterlimit:4;stroke-dasharray:none;stroke-dashoffset:0;stroke-opacity:1" />
          <path
             inkscape:connector-curvature="0"
             id="path1335"
             d="m 53.796776,113.55462 c -2.745848,6.03649 -9.834331,8.88619 -16.22482,7.47049 0,0 -10e-7,0 -10e-7,0 -0.688672,-0.15103 -1.375656,-0.35118 -2.057182,-0.60276 1e-6,0 -5.93e-4,-2.2e-4 -5.92e-4,-2.2e-4 -6.934643,-2.56021 -11.427768,-10.05032 -9.403882,-17.105 5.8e-5,-2e-4 1.12e-4,-3.9e-4 1.7e-4,-5.9e-4 2.026827,-7.063575 10.284928,-10.993549 18.66169,-7.879898 0,0 1.44e-4,5.3e-5 1.44e-4,5.3e-5 0.776756,0.288729 1.518381,0.627437 2.220927,1.009687 0,0 1e-6,10e-7 1e-6,10e-7 6.803383,3.686587 9.561238,11.045697 6.803545,17.108237 z"
             style="opacity:0.9;fill:#111eff;fill-opacity:0.99215686;stroke:#fffbfe;stroke-width:0.15721901;stroke-linecap:round;stroke-linejoin:bevel;stroke-miterlimit:4;stroke-dasharray:none;stroke-dashoffset:0;stroke-opacity:1" />
        </g>
        <g
           style="stroke-width:0.59421349"
           inkscape:transform-center-y="34.350176"
           inkscape:transform-center-x="99.43824"
           transform="matrix(-0.86602541,0.5,0.5,0.86602541,-210.58119,145.61934)"
           id="g1359">
          <path
             inkscape:connector-curvature="0"
             id="path1339"
             d="m -94.595482,123.33807 c 2.338814,2.65011 1.914636,6.83686 -0.607193,9.38728 -2.520765,2.54934 -6.701755,3.02082 -9.379365,0.71288 -2.67802,-2.30831 -2.73898,-6.69261 0.2634,-9.72811 3.00137,-3.03448 7.384699,-3.02176 9.723158,-0.37205 z"
             style="opacity:0.9;fill:#5599ff;fill-opacity:0.99215686;stroke:#fffbfe;stroke-width:0.15721901;stroke-linecap:round;stroke-linejoin:bevel;stroke-miterlimit:4;stroke-dasharray:none;stroke-dashoffset:0;stroke-opacity:1" />
          <path
             inkscape:connector-curvature="0"
             id="path1341"
             d="m 87.753022,133.29065 c -4.87497,6.69869 -14.628747,7.91019 -21.65418,3.69028 -7.042867,-4.23037 -10.554776,-13.42516 -6.897965,-20.87106 1.760588,-3.58485 5.037845,-6.24577 9.282917,-7.22603 4.23974,-0.97903 9.008447,-0.16404 13.115408,2.30529 4.106876,2.46927 7.073163,6.30557 8.199112,10.51612 1.127777,4.21738 0.305165,8.35564 -2.045292,11.5854 z"
             style="opacity:0.9;fill:#0000ff;fill-opacity:0.99215686;stroke:#fffbfe;stroke-width:0.15721901;stroke-linecap:round;stroke-linejoin:bevel;stroke-miterlimit:4;stroke-dasharray:none;stroke-dashoffset:0;stroke-opacity:1" />
          <path
             inkscape:connector-curvature="0"
             id="path1343"
             d="m -60.965518,103.40819 c 1.511272,4.22005 -0.918834,8.94574 -4.933249,10.79971 0,0 -1.42e-4,7e-5 -1.42e-4,7e-5 -4.019359,1.85616 -9.194918,0.64041 -11.422105,-3.24827 -2.5e-5,-4e-5 -4.9e-5,-9e-5 -7.4e-5,-1.3e-4 -2.226144,-3.88705 -0.432229,-9.19399 4.598797,-11.51954 1.88e-4,-8.7e-5 3.76e-4,-1.74e-4 5.64e-4,-2.61e-4 5.035602,-2.327319 10.244341,-0.25329 11.756209,3.968421 z"
             style="opacity:0.9;fill:#447aff;fill-opacity:0.99215686;stroke:#fffbfe;stroke-width:0.15721901;stroke-linecap:round;stroke-linejoin:bevel;stroke-miterlimit:4;stroke-dasharray:none;stroke-dashoffset:0;stroke-opacity:1" />
          <path
             inkscape:connector-curvature="0"
             id="path1345"
             d="m -22.402866,96.618994 c 0.108684,5.448546 -4.54639,9.936936 -9.929719,10.474936 0,0 -3.1e-4,4e-5 -3.1e-4,4e-5 -5.357502,0.53527 -10.794632,-2.92318 -11.811797,-8.246164 -1.8e-5,-9.7e-5 -3.9e-5,-2.04e-4 -5.7e-5,-3.01e-4 -1.018778,-5.332416 3.14373,-10.704791 9.820025,-11.390729 1e-6,0 4.61e-4,-4.8e-5 4.62e-4,-4.8e-5 6.652126,-0.683217 11.8129,3.723371 11.921396,9.162266 z"
             style="opacity:0.9;fill:#335bff;fill-opacity:0.99215686;stroke:#fffbfe;stroke-width:0.15721901;stroke-linecap:round;stroke-linejoin:bevel;stroke-miterlimit:4;stroke-dasharray:none;stroke-dashoffset:0;stroke-opacity:1" />
          <path
             inkscape:connector-curvature="0"
             id="path1347"
             d="m 16.614165,100.86217 c -1.434259,6.23397 -8.0292029,10.00656 -14.3726106,9.03213 -1.551e-4,-3e-5 -3.103e-4,-5e-5 -4.654e-4,-7e-5 -6.3200375,-0.97107 -11.4719294,-6.53341 -11.005065,-12.902159 1.08e-5,-1.48e-4 2.24e-5,-3.06e-4 3.32e-5,-4.54e-4 0.4677592,-6.377136 6.8057041,-11.183785 14.5180634,-10.00286 1.012e-4,1.5e-5 2.024e-4,3.1e-5 3.036e-4,4.6e-5 7.6905228,1.177738 12.2920768,7.647743 10.8597408,13.873367 z"
             style="opacity:0.9;fill:#213dff;fill-opacity:0.99215686;stroke:#fffbfe;stroke-width:0.15721901;stroke-linecap:round;stroke-linejoin:bevel;stroke-miterlimit:4;stroke-dasharray:none;stroke-dashoffset:0;stroke-opacity:1" />
          <path
             inkscape:connector-curvature="0"
             id="path1349"
             d="m 53.796776,113.55462 c -2.745848,6.03649 -9.834331,8.88619 -16.22482,7.47049 0,0 -10e-7,0 -10e-7,0 -0.688672,-0.15103 -1.375656,-0.35118 -2.057182,-0.60276 1e-6,0 -5.93e-4,-2.2e-4 -5.92e-4,-2.2e-4 -6.934643,-2.56021 -11.427768,-10.05032 -9.403882,-17.105 5.8e-5,-2e-4 1.12e-4,-3.9e-4 1.7e-4,-5.9e-4 2.026827,-7.063575 10.284928,-10.993549 18.66169,-7.879898 0,0 1.44e-4,5.3e-5 1.44e-4,5.3e-5 0.776756,0.288729 1.518381,0.627437 2.220927,1.009687 0,0 1e-6,10e-7 1e-6,10e-7 6.803383,3.686587 9.561238,11.045697 6.803545,17.108237 z"
             style="opacity:0.9;fill:#111eff;fill-opacity:0.99215686;stroke:#fffbfe;stroke-width:0.15721901;stroke-linecap:round;stroke-linejoin:bevel;stroke-miterlimit:4;stroke-dasharray:none;stroke-dashoffset:0;stroke-opacity:1" />
          <path
             inkscape:connector-curvature="0"
             id="path1351"
             d="m -60.965518,103.40819 c 1.511272,4.22005 -0.918834,8.94574 -4.933249,10.79971 0,0 -1.42e-4,7e-5 -1.42e-4,7e-5 -4.019359,1.85616 -9.194918,0.64041 -11.422105,-3.24827 -2.5e-5,-4e-5 -4.9e-5,-9e-5 -7.4e-5,-1.3e-4 -2.226144,-3.88705 -0.432229,-9.19399 4.598797,-11.51954 1.88e-4,-8.7e-5 3.76e-4,-1.74e-4 5.64e-4,-2.61e-4 5.035602,-2.327319 10.244341,-0.25329 11.756209,3.968421 z"
             style="opacity:0.9;fill:#447aff;fill-opacity:0.99215686;stroke:#fffbfe;stroke-width:0.15721901;stroke-linecap:round;stroke-linejoin:bevel;stroke-miterlimit:4;stroke-dasharray:none;stroke-dashoffset:0;stroke-opacity:1" />
          <path
             inkscape:connector-curvature="0"
             id="path1353"
             d="m -22.402866,96.618994 c 0.108684,5.448546 -4.54639,9.936936 -9.929719,10.474936 0,0 -3.1e-4,4e-5 -3.1e-4,4e-5 -5.357502,0.53527 -10.794632,-2.92318 -11.811797,-8.246164 -1.8e-5,-9.7e-5 -3.9e-5,-2.04e-4 -5.7e-5,-3.01e-4 -1.018778,-5.332416 3.14373,-10.704791 9.820025,-11.390729 1e-6,0 4.61e-4,-4.8e-5 4.62e-4,-4.8e-5 6.652126,-0.683217 11.8129,3.723371 11.921396,9.162266 z"
             style="opacity:0.9;fill:#335bff;fill-opacity:0.99215686;stroke:#fffbfe;stroke-width:0.15721901;stroke-linecap:round;stroke-linejoin:bevel;stroke-miterlimit:4;stroke-dasharray:none;stroke-dashoffset:0;stroke-opacity:1" />
          <path
             inkscape:connector-curvature="0"
             id="path1355"
             d="m 16.614165,100.86217 c -1.434259,6.23397 -8.0292029,10.00656 -14.3726106,9.03213 -1.551e-4,-3e-5 -3.103e-4,-5e-5 -4.654e-4,-7e-5 -6.3200375,-0.97107 -11.4719294,-6.53341 -11.005065,-12.902159 1.08e-5,-1.48e-4 2.24e-5,-3.06e-4 3.32e-5,-4.54e-4 0.4677592,-6.377136 6.8057041,-11.183785 14.5180634,-10.00286 1.012e-4,1.5e-5 2.024e-4,3.1e-5 3.036e-4,4.6e-5 7.6905228,1.177738 12.2920768,7.647743 10.8597408,13.873367 z"
             style="opacity:0.9;fill:#213dff;fill-opacity:0.99215686;stroke:#fffbfe;stroke-width:0.15721901;stroke-linecap:round;stroke-linejoin:bevel;stroke-miterlimit:4;stroke-dasharray:none;stroke-dashoffset:0;stroke-opacity:1" />
          <path
             inkscape:connector-curvature="0"
             id="path1357"
             d="m 53.796776,113.55462 c -2.745848,6.03649 -9.834331,8.88619 -16.22482,7.47049 0,0 -10e-7,0 -10e-7,0 -0.688672,-0.15103 -1.375656,-0.35118 -2.057182,-0.60276 1e-6,0 -5.93e-4,-2.2e-4 -5.92e-4,-2.2e-4 -6.934643,-2.56021 -11.427768,-10.05032 -9.403882,-17.105 5.8e-5,-2e-4 1.12e-4,-3.9e-4 1.7e-4,-5.9e-4 2.026827,-7.063575 10.284928,-10.993549 18.66169,-7.879898 0,0 1.44e-4,5.3e-5 1.44e-4,5.3e-5 0.776756,0.288729 1.518381,0.627437 2.220927,1.009687 0,0 1e-6,10e-7 1e-6,10e-7 6.803383,3.686587 9.561238,11.045697 6.803545,17.108237 z"
             style="opacity:0.9;fill:#111eff;fill-opacity:0.99215686;stroke:#fffbfe;stroke-width:0.15721901;stroke-linecap:round;stroke-linejoin:bevel;stroke-miterlimit:4;stroke-dasharray:none;stroke-dashoffset:0;stroke-opacity:1" />
        </g>
        <g
           style="stroke-width:0.59421349"
           inkscape:transform-center-y="-51.371584"
           inkscape:transform-center-x="94.987733"
           transform="matrix(-0.96592583,-0.25881905,-0.25881905,0.96592583,-110.88492,46.485886)"
           id="g1381">
          <path
             inkscape:connector-curvature="0"
             id="path1361"
             d="m -94.595482,123.33807 c 2.338814,2.65011 1.914636,6.83686 -0.607193,9.38728 -2.520765,2.54934 -6.701755,3.02082 -9.379365,0.71288 -2.67802,-2.30831 -2.73898,-6.69261 0.2634,-9.72811 3.00137,-3.03448 7.384699,-3.02176 9.723158,-0.37205 z"
             style="opacity:0.9;fill:#5599ff;fill-opacity:0.99215686;stroke:#fffbfe;stroke-width:0.15721901;stroke-linecap:round;stroke-linejoin:bevel;stroke-miterlimit:4;stroke-dasharray:none;stroke-dashoffset:0;stroke-opacity:1" />
          <path
             inkscape:connector-curvature="0"
             id="path1363"
             d="m 87.753022,133.29065 c -4.87497,6.69869 -14.628747,7.91019 -21.65418,3.69028 -7.042867,-4.23037 -10.554776,-13.42516 -6.897965,-20.87106 1.760588,-3.58485 5.037845,-6.24577 9.282917,-7.22603 4.23974,-0.97903 9.008447,-0.16404 13.115408,2.30529 4.106876,2.46927 7.073163,6.30557 8.199112,10.51612 1.127777,4.21738 0.305165,8.35564 -2.045292,11.5854 z"
             style="opacity:0.9;fill:#0000ff;fill-opacity:0.99215686;stroke:#fffbfe;stroke-width:0.15721901;stroke-linecap:round;stroke-linejoin:bevel;stroke-miterlimit:4;stroke-dasharray:none;stroke-dashoffset:0;stroke-opacity:1" />
          <path
             inkscape:connector-curvature="0"
             id="path1365"
             d="m -60.965518,103.40819 c 1.511272,4.22005 -0.918834,8.94574 -4.933249,10.79971 0,0 -1.42e-4,7e-5 -1.42e-4,7e-5 -4.019359,1.85616 -9.194918,0.64041 -11.422105,-3.24827 -2.5e-5,-4e-5 -4.9e-5,-9e-5 -7.4e-5,-1.3e-4 -2.226144,-3.88705 -0.432229,-9.19399 4.598797,-11.51954 1.88e-4,-8.7e-5 3.76e-4,-1.74e-4 5.64e-4,-2.61e-4 5.035602,-2.327319 10.244341,-0.25329 11.756209,3.968421 z"
             style="opacity:0.9;fill:#447aff;fill-opacity:0.99215686;stroke:#fffbfe;stroke-width:0.15721901;stroke-linecap:round;stroke-linejoin:bevel;stroke-miterlimit:4;stroke-dasharray:none;stroke-dashoffset:0;stroke-opacity:1" />
          <path
             inkscape:connector-curvature="0"
             id="path1367"
             d="m -22.402866,96.618994 c 0.108684,5.448546 -4.54639,9.936936 -9.929719,10.474936 0,0 -3.1e-4,4e-5 -3.1e-4,4e-5 -5.357502,0.53527 -10.794632,-2.92318 -11.811797,-8.246164 -1.8e-5,-9.7e-5 -3.9e-5,-2.04e-4 -5.7e-5,-3.01e-4 -1.018778,-5.332416 3.14373,-10.704791 9.820025,-11.390729 1e-6,0 4.61e-4,-4.8e-5 4.62e-4,-4.8e-5 6.652126,-0.683217 11.8129,3.723371 11.921396,9.162266 z"
             style="opacity:0.9;fill:#335bff;fill-opacity:0.99215686;stroke:#fffbfe;stroke-width:0.15721901;stroke-linecap:round;stroke-linejoin:bevel;stroke-miterlimit:4;stroke-dasharray:none;stroke-dashoffset:0;stroke-opacity:1" />
          <path
             inkscape:connector-curvature="0"
             id="path1369"
             d="m 16.614165,100.86217 c -1.434259,6.23397 -8.0292029,10.00656 -14.3726106,9.03213 -1.551e-4,-3e-5 -3.103e-4,-5e-5 -4.654e-4,-7e-5 -6.3200375,-0.97107 -11.4719294,-6.53341 -11.005065,-12.902159 1.08e-5,-1.48e-4 2.24e-5,-3.06e-4 3.32e-5,-4.54e-4 0.4677592,-6.377136 6.8057041,-11.183785 14.5180634,-10.00286 1.012e-4,1.5e-5 2.024e-4,3.1e-5 3.036e-4,4.6e-5 7.6905228,1.177738 12.2920768,7.647743 10.8597408,13.873367 z"
             style="opacity:0.9;fill:#213dff;fill-opacity:0.99215686;stroke:#fffbfe;stroke-width:0.15721901;stroke-linecap:round;stroke-linejoin:bevel;stroke-miterlimit:4;stroke-dasharray:none;stroke-dashoffset:0;stroke-opacity:1" />
          <path
             inkscape:connector-curvature="0"
             id="path1371"
             d="m 53.796776,113.55462 c -2.745848,6.03649 -9.834331,8.88619 -16.22482,7.47049 0,0 -10e-7,0 -10e-7,0 -0.688672,-0.15103 -1.375656,-0.35118 -2.057182,-0.60276 1e-6,0 -5.93e-4,-2.2e-4 -5.92e-4,-2.2e-4 -6.934643,-2.56021 -11.427768,-10.05032 -9.403882,-17.105 5.8e-5,-2e-4 1.12e-4,-3.9e-4 1.7e-4,-5.9e-4 2.026827,-7.063575 10.284928,-10.993549 18.66169,-7.879898 0,0 1.44e-4,5.3e-5 1.44e-4,5.3e-5 0.776756,0.288729 1.518381,0.627437 2.220927,1.009687 0,0 1e-6,10e-7 1e-6,10e-7 6.803383,3.686587 9.561238,11.045697 6.803545,17.108237 z"
             style="opacity:0.9;fill:#111eff;fill-opacity:0.99215686;stroke:#fffbfe;stroke-width:0.15721901;stroke-linecap:round;stroke-linejoin:bevel;stroke-miterlimit:4;stroke-dasharray:none;stroke-dashoffset:0;stroke-opacity:1" />
          <path
             inkscape:connector-curvature="0"
             id="path1373"
             d="m -60.965518,103.40819 c 1.511272,4.22005 -0.918834,8.94574 -4.933249,10.79971 0,0 -1.42e-4,7e-5 -1.42e-4,7e-5 -4.019359,1.85616 -9.194918,0.64041 -11.422105,-3.24827 -2.5e-5,-4e-5 -4.9e-5,-9e-5 -7.4e-5,-1.3e-4 -2.226144,-3.88705 -0.432229,-9.19399 4.598797,-11.51954 1.88e-4,-8.7e-5 3.76e-4,-1.74e-4 5.64e-4,-2.61e-4 5.035602,-2.327319 10.244341,-0.25329 11.756209,3.968421 z"
             style="opacity:0.9;fill:#447aff;fill-opacity:0.99215686;stroke:#fffbfe;stroke-width:0.15721901;stroke-linecap:round;stroke-linejoin:bevel;stroke-miterlimit:4;stroke-dasharray:none;stroke-dashoffset:0;stroke-opacity:1" />
          <path
             inkscape:connector-curvature="0"
             id="path1375"
             d="m -22.402866,96.618994 c 0.108684,5.448546 -4.54639,9.936936 -9.929719,10.474936 0,0 -3.1e-4,4e-5 -3.1e-4,4e-5 -5.357502,0.53527 -10.794632,-2.92318 -11.811797,-8.246164 -1.8e-5,-9.7e-5 -3.9e-5,-2.04e-4 -5.7e-5,-3.01e-4 -1.018778,-5.332416 3.14373,-10.704791 9.820025,-11.390729 1e-6,0 4.61e-4,-4.8e-5 4.62e-4,-4.8e-5 6.652126,-0.683217 11.8129,3.723371 11.921396,9.162266 z"
             style="opacity:0.9;fill:#335bff;fill-opacity:0.99215686;stroke:#fffbfe;stroke-width:0.15721901;stroke-linecap:round;stroke-linejoin:bevel;stroke-miterlimit:4;stroke-dasharray:none;stroke-dashoffset:0;stroke-opacity:1" />
          <path
             inkscape:connector-curvature="0"
             id="path1377"
             d="m 16.614165,100.86217 c -1.434259,6.23397 -8.0292029,10.00656 -14.3726106,9.03213 -1.551e-4,-3e-5 -3.103e-4,-5e-5 -4.654e-4,-7e-5 -6.3200375,-0.97107 -11.4719294,-6.53341 -11.005065,-12.902159 1.08e-5,-1.48e-4 2.24e-5,-3.06e-4 3.32e-5,-4.54e-4 0.4677592,-6.377136 6.8057041,-11.183785 14.5180634,-10.00286 1.012e-4,1.5e-5 2.024e-4,3.1e-5 3.036e-4,4.6e-5 7.6905228,1.177738 12.2920768,7.647743 10.8597408,13.873367 z"
             style="opacity:0.9;fill:#213dff;fill-opacity:0.99215686;stroke:#fffbfe;stroke-width:0.15721901;stroke-linecap:round;stroke-linejoin:bevel;stroke-miterlimit:4;stroke-dasharray:none;stroke-dashoffset:0;stroke-opacity:1" />
          <path
             inkscape:connector-curvature="0"
             id="path1379"
             d="m 53.796776,113.55462 c -2.745848,6.03649 -9.834331,8.88619 -16.22482,7.47049 0,0 -10e-7,0 -10e-7,0 -0.688672,-0.15103 -1.375656,-0.35118 -2.057182,-0.60276 1e-6,0 -5.93e-4,-2.2e-4 -5.92e-4,-2.2e-4 -6.934643,-2.56021 -11.427768,-10.05032 -9.403882,-17.105 5.8e-5,-2e-4 1.12e-4,-3.9e-4 1.7e-4,-5.9e-4 2.026827,-7.063575 10.284928,-10.993549 18.66169,-7.879898 0,0 1.44e-4,5.3e-5 1.44e-4,5.3e-5 0.776756,0.288729 1.518381,0.627437 2.220927,1.009687 0,0 1e-6,10e-7 1e-6,10e-7 6.803383,3.686587 9.561238,11.045697 6.803545,17.108237 z"
             style="opacity:0.9;fill:#111eff;fill-opacity:0.99215686;stroke:#fffbfe;stroke-width:0.15721901;stroke-linecap:round;stroke-linejoin:bevel;stroke-miterlimit:4;stroke-dasharray:none;stroke-dashoffset:0;stroke-opacity:1" />
        </g>
        <g
           style="stroke-width:0.59421349"
           id="g1215"
           transform="matrix(-0.5,-0.86602541,-0.86602541,0.5,29.70893,46.883857)"
           inkscape:transform-center-x="34.350178"
           inkscape:transform-center-y="-99.438242">
          <path
             style="opacity:0.9;fill:#5599ff;fill-opacity:0.99215686;stroke:#fffbfe;stroke-width:0.15721901;stroke-linecap:round;stroke-linejoin:bevel;stroke-miterlimit:4;stroke-dasharray:none;stroke-dashoffset:0;stroke-opacity:1"
             d="m -94.595482,123.33807 c 2.338814,2.65011 1.914636,6.83686 -0.607193,9.38728 -2.520765,2.54934 -6.701755,3.02082 -9.379365,0.71288 -2.67802,-2.30831 -2.73898,-6.69261 0.2634,-9.72811 3.00137,-3.03448 7.384699,-3.02176 9.723158,-0.37205 z"
             id="path815"
             inkscape:connector-curvature="0" />
          <path
             style="opacity:0.9;fill:#0000ff;fill-opacity:0.99215686;stroke:#fffbfe;stroke-width:0.15721901;stroke-linecap:round;stroke-linejoin:bevel;stroke-miterlimit:4;stroke-dasharray:none;stroke-dashoffset:0;stroke-opacity:1"
             d="m 87.753022,133.29065 c -4.87497,6.69869 -14.628747,7.91019 -21.65418,3.69028 -7.042867,-4.23037 -10.554776,-13.42516 -6.897965,-20.87106 1.760588,-3.58485 5.037845,-6.24577 9.282917,-7.22603 4.23974,-0.97903 9.008447,-0.16404 13.115408,2.30529 4.106876,2.46927 7.073163,6.30557 8.199112,10.51612 1.127777,4.21738 0.305165,8.35564 -2.045292,11.5854 z"
             id="path818"
             inkscape:connector-curvature="0" />
          <path
             style="opacity:0.9;fill:#447aff;fill-opacity:0.99215686;stroke:#fffbfe;stroke-width:0.15721901;stroke-linecap:round;stroke-linejoin:bevel;stroke-miterlimit:4;stroke-dasharray:none;stroke-dashoffset:0;stroke-opacity:1"
             d="m -60.965518,103.40819 c 1.511272,4.22005 -0.918834,8.94574 -4.933249,10.79971 0,0 -1.42e-4,7e-5 -1.42e-4,7e-5 -4.019359,1.85616 -9.194918,0.64041 -11.422105,-3.24827 -2.5e-5,-4e-5 -4.9e-5,-9e-5 -7.4e-5,-1.3e-4 -2.226144,-3.88705 -0.432229,-9.19399 4.598797,-11.51954 1.88e-4,-8.7e-5 3.76e-4,-1.74e-4 5.64e-4,-2.61e-4 5.035602,-2.327319 10.244341,-0.25329 11.756209,3.968421 z"
             id="path1153"
             inkscape:connector-curvature="0" />
          <path
             style="opacity:0.9;fill:#335bff;fill-opacity:0.99215686;stroke:#fffbfe;stroke-width:0.15721901;stroke-linecap:round;stroke-linejoin:bevel;stroke-miterlimit:4;stroke-dasharray:none;stroke-dashoffset:0;stroke-opacity:1"
             d="m -22.402866,96.618994 c 0.108684,5.448546 -4.54639,9.936936 -9.929719,10.474936 0,0 -3.1e-4,4e-5 -3.1e-4,4e-5 -5.357502,0.53527 -10.794632,-2.92318 -11.811797,-8.246164 -1.8e-5,-9.7e-5 -3.9e-5,-2.04e-4 -5.7e-5,-3.01e-4 -1.018778,-5.332416 3.14373,-10.704791 9.820025,-11.390729 1e-6,0 4.61e-4,-4.8e-5 4.62e-4,-4.8e-5 6.652126,-0.683217 11.8129,3.723371 11.921396,9.162266 z"
             id="path1155"
             inkscape:connector-curvature="0" />
          <path
             style="opacity:0.9;fill:#213dff;fill-opacity:0.99215686;stroke:#fffbfe;stroke-width:0.15721901;stroke-linecap:round;stroke-linejoin:bevel;stroke-miterlimit:4;stroke-dasharray:none;stroke-dashoffset:0;stroke-opacity:1"
             d="m 16.614165,100.86217 c -1.434259,6.23397 -8.0292029,10.00656 -14.3726106,9.03213 -1.551e-4,-3e-5 -3.103e-4,-5e-5 -4.654e-4,-7e-5 -6.3200375,-0.97107 -11.4719294,-6.53341 -11.005065,-12.902159 1.08e-5,-1.48e-4 2.24e-5,-3.06e-4 3.32e-5,-4.54e-4 0.4677592,-6.377136 6.8057041,-11.183785 14.5180634,-10.00286 1.012e-4,1.5e-5 2.024e-4,3.1e-5 3.036e-4,4.6e-5 7.6905228,1.177738 12.2920768,7.647743 10.8597408,13.873367 z"
             id="path1157"
             inkscape:connector-curvature="0" />
          <path
             style="opacity:0.9;fill:#111eff;fill-opacity:0.99215686;stroke:#fffbfe;stroke-width:0.15721901;stroke-linecap:round;stroke-linejoin:bevel;stroke-miterlimit:4;stroke-dasharray:none;stroke-dashoffset:0;stroke-opacity:1"
             d="m 53.796776,113.55462 c -2.745848,6.03649 -9.834331,8.88619 -16.22482,7.47049 0,0 -10e-7,0 -10e-7,0 -0.688672,-0.15103 -1.375656,-0.35118 -2.057182,-0.60276 1e-6,0 -5.93e-4,-2.2e-4 -5.92e-4,-2.2e-4 -6.934643,-2.56021 -11.427768,-10.05032 -9.403882,-17.105 5.8e-5,-2e-4 1.12e-4,-3.9e-4 1.7e-4,-5.9e-4 2.026827,-7.063575 10.284928,-10.993549 18.66169,-7.879898 0,0 1.44e-4,5.3e-5 1.44e-4,5.3e-5 0.776756,0.288729 1.518381,0.627437 2.220927,1.009687 0,0 1e-6,10e-7 1e-6,10e-7 6.803383,3.686587 9.561238,11.045697 6.803545,17.108237 z"
             id="path1159"
             inkscape:connector-curvature="0" />
          <path
             style="opacity:0.9;fill:#447aff;fill-opacity:0.99215686;stroke:#fffbfe;stroke-width:0.15721901;stroke-linecap:round;stroke-linejoin:bevel;stroke-miterlimit:4;stroke-dasharray:none;stroke-dashoffset:0;stroke-opacity:1"
             d="m -60.965518,103.40819 c 1.511272,4.22005 -0.918834,8.94574 -4.933249,10.79971 0,0 -1.42e-4,7e-5 -1.42e-4,7e-5 -4.019359,1.85616 -9.194918,0.64041 -11.422105,-3.24827 -2.5e-5,-4e-5 -4.9e-5,-9e-5 -7.4e-5,-1.3e-4 -2.226144,-3.88705 -0.432229,-9.19399 4.598797,-11.51954 1.88e-4,-8.7e-5 3.76e-4,-1.74e-4 5.64e-4,-2.61e-4 5.035602,-2.327319 10.244341,-0.25329 11.756209,3.968421 z"
             id="path1180"
             inkscape:connector-curvature="0" />
          <path
             style="opacity:0.9;fill:#335bff;fill-opacity:0.99215686;stroke:#fffbfe;stroke-width:0.15721901;stroke-linecap:round;stroke-linejoin:bevel;stroke-miterlimit:4;stroke-dasharray:none;stroke-dashoffset:0;stroke-opacity:1"
             d="m -22.402866,96.618994 c 0.108684,5.448546 -4.54639,9.936936 -9.929719,10.474936 0,0 -3.1e-4,4e-5 -3.1e-4,4e-5 -5.357502,0.53527 -10.794632,-2.92318 -11.811797,-8.246164 -1.8e-5,-9.7e-5 -3.9e-5,-2.04e-4 -5.7e-5,-3.01e-4 -1.018778,-5.332416 3.14373,-10.704791 9.820025,-11.390729 1e-6,0 4.61e-4,-4.8e-5 4.62e-4,-4.8e-5 6.652126,-0.683217 11.8129,3.723371 11.921396,9.162266 z"
             id="path1182"
             inkscape:connector-curvature="0" />
          <path
             style="opacity:0.9;fill:#213dff;fill-opacity:0.99215686;stroke:#fffbfe;stroke-width:0.15721901;stroke-linecap:round;stroke-linejoin:bevel;stroke-miterlimit:4;stroke-dasharray:none;stroke-dashoffset:0;stroke-opacity:1"
             d="m 16.614165,100.86217 c -1.434259,6.23397 -8.0292029,10.00656 -14.3726106,9.03213 -1.551e-4,-3e-5 -3.103e-4,-5e-5 -4.654e-4,-7e-5 -6.3200375,-0.97107 -11.4719294,-6.53341 -11.005065,-12.902159 1.08e-5,-1.48e-4 2.24e-5,-3.06e-4 3.32e-5,-4.54e-4 0.4677592,-6.377136 6.8057041,-11.183785 14.5180634,-10.00286 1.012e-4,1.5e-5 2.024e-4,3.1e-5 3.036e-4,4.6e-5 7.6905228,1.177738 12.2920768,7.647743 10.8597408,13.873367 z"
             id="path1184"
             inkscape:connector-curvature="0" />
          <path
             style="opacity:0.9;fill:#111eff;fill-opacity:0.99215686;stroke:#fffbfe;stroke-width:0.15721901;stroke-linecap:round;stroke-linejoin:bevel;stroke-miterlimit:4;stroke-dasharray:none;stroke-dashoffset:0;stroke-opacity:1"
             d="m 53.796776,113.55462 c -2.745848,6.03649 -9.834331,8.88619 -16.22482,7.47049 0,0 -10e-7,0 -10e-7,0 -0.688672,-0.15103 -1.375656,-0.35118 -2.057182,-0.60276 1e-6,0 -5.93e-4,-2.2e-4 -5.92e-4,-2.2e-4 -6.934643,-2.56021 -11.427768,-10.05032 -9.403882,-17.105 5.8e-5,-2e-4 1.12e-4,-3.9e-4 1.7e-4,-5.9e-4 2.026827,-7.063575 10.284928,-10.993549 18.66169,-7.879898 0,0 1.44e-4,5.3e-5 1.44e-4,5.3e-5 0.776756,0.288729 1.518381,0.627437 2.220927,1.009687 0,0 1e-6,10e-7 1e-6,10e-7 6.803383,3.686587 9.561238,11.045697 6.803545,17.108237 z"
             id="path1186"
             inkscape:connector-curvature="0" />
        </g>
      </g>
      <text
         id="text1475"
         y="361.67117"
         x="-171.30742"
         style="font-style:normal;font-variant:normal;font-weight:normal;font-stretch:normal;font-size:42.1922226px;line-height:1.25;font-family:'Air America';-inkscape-font-specification:'Air America, Normal';font-variant-ligatures:normal;font-variant-caps:normal;font-variant-numeric:normal;font-feature-settings:normal;text-align:start;letter-spacing:8.43838596px;word-spacing:0px;writing-mode:lr-tb;text-anchor:start;fill:#2a2aff;fill-opacity:1;stroke:#fffbfe;stroke-width:0.08612188;stroke-opacity:1"
         xml:space="preserve"><tspan
           style="font-style:normal;font-variant:normal;font-weight:normal;font-stretch:normal;font-size:42.1922226px;font-family:'Air America';-inkscape-font-specification:'Air America, Normal';font-variant-ligatures:normal;font-variant-caps:normal;font-variant-numeric:normal;font-feature-settings:normal;text-align:start;writing-mode:lr-tb;text-anchor:start;fill:#2a2aff;stroke:#fffbfe;stroke-width:0.08612188;stroke-opacity:1"
           y="361.67117"
           x="-171.30742"
           id="tspan1473"
           sodipodi:role="line">pytonixs Ltd</tspan></text>
    </g>
  </g>
</svg>
